inDegrees=no
num_controls=7
num_derivatives=13
num_iterations=60
num_multipliers=7
num_parameters=0
num_slacks=7
num_states=26
objective=0.471353
objective_accelerations=0.057175
objective_balance=0.001125
objective_effort=0.016571
objective_height=0.387088
objective_ligament=0.009394
solver_duration=814.375099
status=Solve_Succeeded
success=true
DataType=double
version=3
OpenSimVersion=4.5
endheader
time	/jointset/ground_pelvis/pelvis_tilt/value	/jointset/ground_pelvis/pelvis_tx/value	/jointset/ground_pelvis/pelvis_ty/value	/jointset/hip_l/hip_flexion_l/value	/jointset/hip_l/hip_adduction_l/value	/jointset/hip_l/hip_rotation_l/value	/jointset/back/lumbar_extension/value	/jointset/patellofemoral_l/patellar_flexion_l/value	/jointset/knee_l/knee_flexion_l/value	/jointset/knee_l/knee_adduction_l/value	/jointset/knee_l/knee_rotation_l/value	/jointset/ankle_l/ankle_angle_l/value	/jointset/subtalar_l/subtalar_angle_l/value	/jointset/ground_pelvis/pelvis_tilt/speed	/jointset/ground_pelvis/pelvis_tx/speed	/jointset/ground_pelvis/pelvis_ty/speed	/jointset/hip_l/hip_flexion_l/speed	/jointset/hip_l/hip_adduction_l/speed	/jointset/hip_l/hip_rotation_l/speed	/jointset/back/lumbar_extension/speed	/jointset/patellofemoral_l/patellar_flexion_l/speed	/jointset/knee_l/knee_flexion_l/speed	/jointset/knee_l/knee_adduction_l/speed	/jointset/knee_l/knee_rotation_l/speed	/jointset/ankle_l/ankle_angle_l/speed	/jointset/subtalar_l/subtalar_angle_l/speed	/forceset/tau_hip_flexion_l	/forceset/tau_hip_adduction_l	/forceset/tau_hip_rotation_l	/forceset/tau_knee_flexion_l	/forceset/tau_ankle_angle_l	/forceset/tau_subtalar_angle_l	/forceset/tau_lumbar_extension	lambda_cid13_p0	lambda_cid13_p1	lambda_cid13_p2	lambda_cid13_p3	lambda_cid13_p4	lambda_cid13_p5	lambda_cid14_p0	/jointset/ground_pelvis/pelvis_tilt/accel	/jointset/ground_pelvis/pelvis_tx/accel	/jointset/ground_pelvis/pelvis_ty/accel	/jointset/hip_l/hip_flexion_l/accel	/jointset/hip_l/hip_adduction_l/accel	/jointset/hip_l/hip_rotation_l/accel	/jointset/back/lumbar_extension/accel	/jointset/patellofemoral_l/patellar_flexion_l/accel	/jointset/knee_l/knee_flexion_l/accel	/jointset/knee_l/knee_adduction_l/accel	/jointset/knee_l/knee_rotation_l/accel	/jointset/ankle_l/ankle_angle_l/accel	/jointset/subtalar_l/subtalar_angle_l/accel	gamma_cid13_p0	gamma_cid13_p1	gamma_cid13_p2	gamma_cid13_p3	gamma_cid13_p4	gamma_cid13_p5	gamma_cid14_p0
0	0.04907789831521069	0.1074443406672235	0.9034562887785962	0.1266922784136757	-0.3651635363109049	-0.2333208230647577	-0.2144969558742783	0.2051545070142141	0.2051545070141877	-0.1640980913965756	-0.1657927150020418	0.09024313228550125	0.08441568042203827	0	0	0	0	0	0	0	0	0	0	0	0	0	0.1233898058051606	-0.03838554267154366	-0.01051417171191332	-0.2471354621802187	0.168933405821704	-0.0970349211330144	-0.05616476082382468	21.84026647578987	38.97155457738061	-7.240437064631284	-5.626983549732946	-447.543482911375	-38.30735962073027	-26.36322551528267	-5.011448012050709	-1.690161842961969	-0.8203788132233305	12.7168446168462	0.1117220867668947	2.888277300341454	-3.713103776169594	8.198512165956487	8.198512165956181	2.263060845044464	-0.2561660688543848	1.378295613272521	0.5055716823172559	9.58717227364255e-09	4.905236095475497e-07	-1.632081790841842e-07	7.287219232703237e-08	-6.465892782942498e-08	2.298913569947462e-07	8.473462321132399e-08
0.01	0.04883910260706786	0.1073604447849029	0.9034163642287283	0.1273103871155283	-0.3651585872982891	-0.2331723664315041	-0.2146876000283029	0.2055573328706624	0.2055573328704701	-0.1639883553043387	-0.1657993258656053	0.09031080043024274	0.08443983778173764	-0.04723728299988334	-0.01674838613243077	-0.007971559908300924	0.1229504838539815	0.0008392628634768156	0.02949458824002677	-0.03795472963079909	0.08055511766955456	0.08055511766954707	0.02164095766682256	-0.0015642272949287	0.01357408849645098	0.004683272576969264	0.1165474210872044	-0.04595354244394585	-0.008942491811769093	-0.2368446449690787	0.152599791015571	-0.085716581127969	-0.05119671712407901	17.30965587546829	34.31221081687637	-5.884151039473267	-3.057193950354057	-446.8570798255363	-46.90372059826289	-26.36243010223842	-4.501581684959492	-1.662543873272751	-0.7835550016524515	11.98346769747697	0.04739686385258922	2.950578080877202	-3.810542381258472	7.982486581517143	7.982486581516467	2.06873974643581	-0.1428976662345388	1.35304882915838	0.4274174233807739	8.348015202682794e-09	5.369051521577696e-07	-9.211550579314042e-08	6.00004480934e-08	-1.637401089342612e-07	1.697902615659554e-07	8.449478564986425e-08
0.02	0.04814359142072414	0.1071099916662827	0.9032971219953673	0.1291378641415701	-0.3651497719614994	-0.2327348582169195	-0.2152525684435894	0.2067654049063585	0.2067654049063319	-0.1636713843319939	-0.1658288483237629	0.09051542613217868	0.08450637034280478	-0.09134309563978787	-0.03331144725992881	-0.01586353669861632	0.2418736648201456	0.0007732648354889732	0.05781031628176972	-0.07486485225062162	0.1610492359015616	0.1610492359015491	0.04144697609108183	-0.004582318846745305	0.02739151144593855	0.008475040273715682	0.1097050363700987	-0.0535215422159717	-0.007370811909825742	-0.2265538277580027	0.1362661762095193	-0.07439824112251452	-0.04622867342373323	12.81643099675471	29.65687686337743	-4.540563311894001	-0.4690751718049782	-445.4599165154592	-55.34432196917275	-26.36037968722271	-4.385153940055252	-1.653096841975089	-0.8044621896262456	11.91138403928277	-0.06933009152599644	2.652505260684741	-3.504182373974556	8.186312278447025	8.18631227844722	1.896072996531853	-0.5469389202319124	1.426962503880268	0.3272707062728458	7.108858131723039e-09	5.832866947679894e-07	-2.102283250209661e-08	4.712870385976763e-08	-2.628212900390974e-07	1.096891661371646e-07	8.42549480884045e-08
0.03	0.04701710015110715	0.1066951759640056	0.9030992231210051	0.1321377708684611	-0.3651441142243736	-0.2320193505108787	-0.216178583833236	0.2087730792195541	0.2087730792194229	-0.1631630481546838	-0.1658922276670818	0.09085737006376521	0.08460792798876121	-0.1339511040506134	-0.04958536256708081	-0.02371057301861861	0.3577135716249612	0.0004135740086925479	0.08525192055349995	-0.1099223232001208	0.2399419796107259	0.2399419796107357	0.06015644678029919	-0.007885640411650881	0.04082822289174725	0.01184616647888032	0.1067438473077975	-0.04920082705222654	-0.006825936425379046	-0.2239810670010227	0.1339054427327461	-0.07646356377965483	-0.04382392067165577	11.93626278347758	30.65391837087997	-4.637792406529474	-0.07542641768753189	-445.6001192406845	-52.72086967495275	-26.35740303140932	-4.198010806231506	-1.60457990625119	-0.774027544544674	11.36117872254527	-0.01108260844257342	2.784113032863695	-3.444144084710615	7.659191499418066	7.659191499421149	1.848910940839212	-0.1908593180155766	1.276689623801574	0.3433954320250668	4.039188091956651e-09	7.545482527359799e-07	-6.238599419972409e-08	7.721971756775372e-08	-3.61875305578577e-07	1.686412672271066e-07	1.143039644581388e-07
0.04	0.04546465149446464	0.1061196129024255	0.90282301324517	0.136284253607749	-0.3651404122015617	-0.2310306017576656	-0.217442696858229	0.211553368186216	0.2115533681861935	-0.1624695119034586	-0.1659824063348299	0.09132861394157359	0.08474346926764649	-0.1765345730469258	-0.06546091912052415	-0.03152573699318374	0.4711888672883447	0.0003821219744431121	0.1124585257230791	-0.1424843793206243	0.3155721666105705	0.3155721666105969	0.07848699089842284	-0.009942183712394699	0.05325150069235719	0.01527176685951608	0.1037826582462183	-0.04488011188841288	-0.006281060940355552	-0.2214083062436136	0.1315447092561724	-0.07852888643666837	-0.04141916791920314	11.0906612240809	31.65561086063773	-4.747990444378972	0.3335858010366554	-445.0815068831029	-49.95008611254045	-26.35277437287465	-4.380246057152951	-1.573425091233056	-0.7980877205388347	11.43846181099645	-0.003682333016559531	2.605505440254562	-3.005099408175725	7.533800936583127	7.533800936582214	1.820287682313146	-0.297583267399527	1.224275774840906	0.3381655413672077	9.317755167509476e-10	9.283846563814502e-07	-1.060678329074273e-07	1.081965613363917e-07	-4.60928761003307e-07	2.300480733999092e-07	1.449774932800626e-07
0.05	0.04348861229868524	0.1053873893298189	0.9024685871064317	0.1415518445147629	-0.365136701974977	-0.2297752862205047	-0.2190214987613412	0.2150758760646805	0.2150758760646282	-0.1615965660036011	-0.1660923326779319	0.09191983077719813	0.08491241188575212	-0.2183876467699654	-0.08090394280598333	-0.03936588693666414	0.5816360201083701	0.0002879990917018679	0.1382835160803034	-0.1730859070214312	0.3885211325183829	0.3885211325184068	0.09582265138830905	-0.01220247311701096	0.06488406115642997	0.01841067361408676	0.09957057087310749	-0.04357546022141502	-0.005448371109546357	-0.2176598947941415	0.1271257720742709	-0.07732425898978379	-0.0382682871261033	9.819121765483311	31.24270831593461	-4.553808103037633	0.7731762168681477	-443.9795854927859	-49.8816335054069	-26.34575606269721	-4.044981685391758	-1.517741227492754	-0.7780310448016025	10.74385336035862	-0.02319206225666814	2.522881238386541	-3.059165310105121	7.114173690129034	7.114173690129344	1.648423688401818	-0.2141996159845811	1.116607486547106	0.2857065266443108	-6.964023781641494e-09	7.669552445863769e-07	-4.484804929617619e-08	9.495125682503678e-08	-5.482373273416761e-07	1.318045549963231e-07	1.225701215766025e-07
